ply
format ascii 1.0
element vertex 8
property float x
property float y
property float z
element face 12
property list uchar int vertex_indices
end_header
103.000000 9.000000 22.000000 
103.000000 9.000000 318.000000 
103.000000 1012.000000 22.000000 
103.000000 1012.000000 318.000000 
459.000000 9.000000 22.000000 
459.000000 9.000000 318.000000 
459.000000 1012.000000 22.000000 
459.000000 1012.000000 318.000000 
3 0 1 3 
3 0 3 2 
3 4 7 5 
3 4 6 7 
3 0 6 4 
3 0 2 6 
3 1 5 7 
3 1 7 3 
3 0 5 1 
3 0 4 5 
3 2 3 7 
3 2 7 6 
